<svg width="86" height="64" viewBox="0 0 86 64" fill="none" xmlns="http://www.w3.org/2000/svg">
<mask id="path-1-inside-1_47_315" fill="white">
<path d="M73.8148 36.7912C70.8376 36.8066 68.2499 37.5236 66.0835 38.5837C65.2882 37.0092 64.4933 35.6065 64.3532 34.5776C64.1971 33.3775 64.0102 32.6448 64.1971 31.2107C64.3843 29.7766 65.226 27.7345 65.2103 27.5787C65.1949 27.4229 65.0231 26.6902 63.3086 26.6748C61.594 26.6591 60.1131 27.0021 59.9417 27.454C59.7702 27.906 59.4429 28.9349 59.2246 29.9946C58.9284 31.5537 55.7955 37.1182 54.0031 40.0331C53.4261 38.8955 52.9274 37.8977 52.8181 37.1028C52.6623 35.9027 52.4751 35.1699 52.6623 33.7359C52.8495 32.3018 53.6912 30.26 53.6755 30.1039C53.6598 29.9481 53.4883 29.2154 51.7738 29.2C50.0589 29.1843 48.578 29.5272 48.4069 29.9792C48.2354 30.4315 48.0482 31.4912 47.6898 32.5201C47.3311 33.549 43.1693 42.8394 42.0782 45.2396C41.6373 46.2111 41.1747 47.1726 40.6909 48.1234C40.6909 48.1234 40.6752 48.1702 40.6284 48.2481C40.4764 48.5463 40.3206 48.8425 40.1611 49.1367V49.152C39.9271 49.5732 39.6777 49.9627 39.553 49.9627C39.4594 49.9627 39.2879 48.8405 39.5841 47.3128C40.2076 44.0863 41.6884 39.067 41.6731 38.8955C41.6731 38.8019 41.9535 37.9291 40.7066 37.4768C39.4905 37.0249 39.0543 37.773 38.945 37.773C38.836 37.773 38.7578 38.0381 38.7578 38.0381C38.7578 38.0381 40.1143 32.3954 36.1704 32.3954C33.7077 32.3954 30.3094 35.0921 28.626 37.5236C26.7122 38.5651 24.8001 39.6095 22.8897 40.6569C21.9704 41.1713 21.0193 41.6858 20.1308 42.1688C20.0683 42.1067 20.0061 42.0284 19.9436 41.9663C15.1737 36.8691 6.35131 33.2682 6.72538 26.4254C6.86578 23.9313 7.72288 17.3844 23.6692 9.43479C36.7939 2.96573 47.2379 4.75816 49.046 8.73313C51.6334 14.4073 43.4501 24.9445 29.8886 26.4719C24.7135 27.0489 22.0011 25.0535 21.3155 24.3054C20.5985 23.5258 20.4892 23.479 20.2241 23.6352C19.7878 23.8692 20.0683 24.5705 20.2241 24.9756C20.6296 26.0353 22.2973 27.906 25.1187 28.8259C27.6128 29.6362 33.6763 30.0885 41.0182 27.2514C49.2329 24.0714 55.6551 15.2333 53.7691 7.82922C51.8827 0.315865 39.4126 -2.16251 27.6128 2.03041C20.5985 4.52483 12.9915 8.45266 7.5203 13.5655C1.02016 19.6445 -0.00876695 24.9288 0.412096 27.1425C1.9244 34.9985 12.7579 40.1113 17.0912 43.8991C16.8729 44.0238 16.67 44.1331 16.4988 44.2267C14.332 45.3021 6.07051 49.6197 4.013 54.187C1.67502 59.362 4.3874 63.0723 6.17983 63.5707C11.7446 65.1141 17.4652 62.3395 20.536 57.7565C23.6067 53.1738 23.2326 47.2192 21.8143 44.4914C21.7986 44.4604 21.7832 44.4289 21.7518 44.3978C22.313 44.0706 22.8897 43.7276 23.4509 43.4003C24.4825 42.7905 25.5271 42.2032 26.5842 41.6387C26.054 43.0885 25.6642 44.8187 25.4774 47.3128C25.2434 50.2435 26.4434 54.0466 28.0179 55.5429C28.7196 56.1981 29.5456 56.2134 30.0758 56.2134C31.915 56.2134 32.7413 54.6858 33.6609 52.8776C34.7831 50.6643 35.7964 48.0923 35.7964 48.0923C35.7964 48.0923 34.5338 55.0444 37.9632 55.0444C39.2101 55.0444 40.4726 53.4232 41.0339 52.5972V52.6125C41.0339 52.6125 41.065 52.5657 41.1275 52.4568C41.2522 52.2542 41.3301 52.1292 41.3301 52.1292V52.0984C41.8288 51.2253 42.9514 49.2456 44.6191 45.9566C46.7702 41.7169 48.8434 36.4172 48.8434 36.4172C48.8434 36.4172 49.0306 37.7108 49.6695 39.862C50.0439 41.1245 50.8227 42.5118 51.4465 43.8523C50.9478 44.554 50.6359 44.9434 50.6359 44.9434L50.6516 44.9591C50.2461 45.4889 49.8099 46.0656 49.3265 46.6272C47.6273 48.6533 45.6012 50.9762 45.3204 51.6461C44.9928 52.441 45.071 53.018 45.6948 53.4857C46.1468 53.8287 46.9571 53.8751 47.7834 53.8287C49.3111 53.7193 50.3865 53.3453 50.9163 53.1116C51.7427 52.8154 52.7091 52.3632 53.613 51.6929C55.2811 50.4614 56.294 48.7001 56.2007 46.3778C56.1539 45.0995 55.733 43.8212 55.2186 42.6208C55.3747 42.4028 55.5147 42.1846 55.6708 41.9663C58.305 38.116 60.3471 33.8916 60.3471 33.8916C60.3471 33.8916 60.5343 35.1853 61.1732 37.3368C61.485 38.4279 62.1242 39.6126 62.6851 40.7659C60.2067 42.7769 58.6791 45.1149 58.1335 46.6426C57.1517 49.4796 57.9152 50.7576 59.365 51.0538C60.0195 51.1942 60.9549 50.8823 61.6408 50.5861C62.5136 50.3056 63.5426 49.8226 64.5247 49.1052C66.1928 47.8741 67.798 46.1592 67.7044 43.8369C67.6576 42.7769 67.3771 41.7323 66.9874 40.7191C69.0917 39.8466 71.804 39.3632 75.2642 39.7684C82.6843 40.6412 84.1495 45.2707 83.8687 47.2195C83.5882 49.1677 82.0294 50.2278 81.5153 50.555C81.0005 50.8826 80.8294 50.9916 80.8762 51.2253C80.9383 51.5682 81.1877 51.5528 81.6243 51.4903C82.2324 51.3814 85.5214 49.9159 85.6614 46.3307C85.8954 41.748 81.5307 36.7444 73.8148 36.7912ZM16.5767 56.0887C14.1137 58.7697 10.6846 59.7829 9.20376 58.9258C7.6139 58.0059 8.23734 54.0466 11.2613 51.2099C13.1005 49.4796 15.4699 47.8737 17.0444 46.8919C17.4027 46.6736 17.9329 46.3621 18.5721 45.9723C18.681 45.9098 18.7435 45.8787 18.7435 45.8787L19.1176 45.6447C20.2241 49.6976 19.1644 53.2674 16.5767 56.0887ZM34.5027 43.8991C33.6452 45.988 31.8528 51.3346 30.7617 51.0384C29.8264 50.789 29.2494 46.7362 30.5745 42.7301C31.2447 40.7191 32.6631 38.3186 33.4895 37.3836C34.8299 35.887 36.3108 35.3879 36.6692 35.9963C37.1215 36.7912 35.0325 42.5897 34.5027 43.8991ZM49.2954 50.9759C48.9367 51.1631 48.5941 51.2878 48.438 51.1942C48.329 51.1317 48.5941 50.8823 48.5941 50.8823C48.5941 50.8823 50.449 48.8873 51.1814 47.983C51.6026 47.4532 52.101 46.8298 52.6312 46.1281V46.3307C52.6312 48.7158 50.324 50.3214 49.2951 50.9759H49.2954ZM60.7055 48.3728C60.4404 48.1856 60.4872 47.5622 61.3757 45.6136C61.7187 44.8498 62.529 43.5718 63.9166 42.3403C64.0724 42.8391 64.1817 43.3225 64.166 43.7744C64.1503 46.783 61.9995 47.9052 60.7055 48.3728Z"/>
</mask>
<path d="M73.8148 36.7912C70.8376 36.8066 68.2499 37.5236 66.0835 38.5837C65.2882 37.0092 64.4933 35.6065 64.3532 34.5776C64.1971 33.3775 64.0102 32.6448 64.1971 31.2107C64.3843 29.7766 65.226 27.7345 65.2103 27.5787C65.1949 27.4229 65.0231 26.6902 63.3086 26.6748C61.594 26.6591 60.1131 27.0021 59.9417 27.454C59.7702 27.906 59.4429 28.9349 59.2246 29.9946C58.9284 31.5537 55.7955 37.1182 54.0031 40.0331C53.4261 38.8955 52.9274 37.8977 52.8181 37.1028C52.6623 35.9027 52.4751 35.1699 52.6623 33.7359C52.8495 32.3018 53.6912 30.26 53.6755 30.1039C53.6598 29.9481 53.4883 29.2154 51.7738 29.2C50.0589 29.1843 48.578 29.5272 48.4069 29.9792C48.2354 30.4315 48.0482 31.4912 47.6898 32.5201C47.3311 33.549 43.1693 42.8394 42.0782 45.2396C41.6373 46.2111 41.1747 47.1726 40.6909 48.1234C40.6909 48.1234 40.6752 48.1702 40.6284 48.2481C40.4764 48.5463 40.3206 48.8425 40.1611 49.1367V49.152C39.9271 49.5732 39.6777 49.9627 39.553 49.9627C39.4594 49.9627 39.2879 48.8405 39.5841 47.3128C40.2076 44.0863 41.6884 39.067 41.6731 38.8955C41.6731 38.8019 41.9535 37.9291 40.7066 37.4768C39.4905 37.0249 39.0543 37.773 38.945 37.773C38.836 37.773 38.7578 38.0381 38.7578 38.0381C38.7578 38.0381 40.1143 32.3954 36.1704 32.3954C33.7077 32.3954 30.3094 35.0921 28.626 37.5236C26.7122 38.5651 24.8001 39.6095 22.8897 40.6569C21.9704 41.1713 21.0193 41.6858 20.1308 42.1688C20.0683 42.1067 20.0061 42.0284 19.9436 41.9663C15.1737 36.8691 6.35131 33.2682 6.72538 26.4254C6.86578 23.9313 7.72288 17.3844 23.6692 9.43479C36.7939 2.96573 47.2379 4.75816 49.046 8.73313C51.6334 14.4073 43.4501 24.9445 29.8886 26.4719C24.7135 27.0489 22.0011 25.0535 21.3155 24.3054C20.5985 23.5258 20.4892 23.479 20.2241 23.6352C19.7878 23.8692 20.0683 24.5705 20.2241 24.9756C20.6296 26.0353 22.2973 27.906 25.1187 28.8259C27.6128 29.6362 33.6763 30.0885 41.0182 27.2514C49.2329 24.0714 55.6551 15.2333 53.7691 7.82922C51.8827 0.315865 39.4126 -2.16251 27.6128 2.03041C20.5985 4.52483 12.9915 8.45266 7.5203 13.5655C1.02016 19.6445 -0.00876695 24.9288 0.412096 27.1425C1.9244 34.9985 12.7579 40.1113 17.0912 43.8991C16.8729 44.0238 16.67 44.1331 16.4988 44.2267C14.332 45.3021 6.07051 49.6197 4.013 54.187C1.67502 59.362 4.3874 63.0723 6.17983 63.5707C11.7446 65.1141 17.4652 62.3395 20.536 57.7565C23.6067 53.1738 23.2326 47.2192 21.8143 44.4914C21.7986 44.4604 21.7832 44.4289 21.7518 44.3978C22.313 44.0706 22.8897 43.7276 23.4509 43.4003C24.4825 42.7905 25.5271 42.2032 26.5842 41.6387C26.054 43.0885 25.6642 44.8187 25.4774 47.3128C25.2434 50.2435 26.4434 54.0466 28.0179 55.5429C28.7196 56.1981 29.5456 56.2134 30.0758 56.2134C31.915 56.2134 32.7413 54.6858 33.6609 52.8776C34.7831 50.6643 35.7964 48.0923 35.7964 48.0923C35.7964 48.0923 34.5338 55.0444 37.9632 55.0444C39.2101 55.0444 40.4726 53.4232 41.0339 52.5972V52.6125C41.0339 52.6125 41.065 52.5657 41.1275 52.4568C41.2522 52.2542 41.3301 52.1292 41.3301 52.1292V52.0984C41.8288 51.2253 42.9514 49.2456 44.6191 45.9566C46.7702 41.7169 48.8434 36.4172 48.8434 36.4172C48.8434 36.4172 49.0306 37.7108 49.6695 39.862C50.0439 41.1245 50.8227 42.5118 51.4465 43.8523C50.9478 44.554 50.6359 44.9434 50.6359 44.9434L50.6516 44.9591C50.2461 45.4889 49.8099 46.0656 49.3265 46.6272C47.6273 48.6533 45.6012 50.9762 45.3204 51.6461C44.9928 52.441 45.071 53.018 45.6948 53.4857C46.1468 53.8287 46.9571 53.8751 47.7834 53.8287C49.3111 53.7193 50.3865 53.3453 50.9163 53.1116C51.7427 52.8154 52.7091 52.3632 53.613 51.6929C55.2811 50.4614 56.294 48.7001 56.2007 46.3778C56.1539 45.0995 55.733 43.8212 55.2186 42.6208C55.3747 42.4028 55.5147 42.1846 55.6708 41.9663C58.305 38.116 60.3471 33.8916 60.3471 33.8916C60.3471 33.8916 60.5343 35.1853 61.1732 37.3368C61.485 38.4279 62.1242 39.6126 62.6851 40.7659C60.2067 42.7769 58.6791 45.1149 58.1335 46.6426C57.1517 49.4796 57.9152 50.7576 59.365 51.0538C60.0195 51.1942 60.9549 50.8823 61.6408 50.5861C62.5136 50.3056 63.5426 49.8226 64.5247 49.1052C66.1928 47.8741 67.798 46.1592 67.7044 43.8369C67.6576 42.7769 67.3771 41.7323 66.9874 40.7191C69.0917 39.8466 71.804 39.3632 75.2642 39.7684C82.6843 40.6412 84.1495 45.2707 83.8687 47.2195C83.5882 49.1677 82.0294 50.2278 81.5153 50.555C81.0005 50.8826 80.8294 50.9916 80.8762 51.2253C80.9383 51.5682 81.1877 51.5528 81.6243 51.4903C82.2324 51.3814 85.5214 49.9159 85.6614 46.3307C85.8954 41.748 81.5307 36.7444 73.8148 36.7912ZM16.5767 56.0887C14.1137 58.7697 10.6846 59.7829 9.20376 58.9258C7.6139 58.0059 8.23734 54.0466 11.2613 51.2099C13.1005 49.4796 15.4699 47.8737 17.0444 46.8919C17.4027 46.6736 17.9329 46.3621 18.5721 45.9723C18.681 45.9098 18.7435 45.8787 18.7435 45.8787L19.1176 45.6447C20.2241 49.6976 19.1644 53.2674 16.5767 56.0887ZM34.5027 43.8991C33.6452 45.988 31.8528 51.3346 30.7617 51.0384C29.8264 50.789 29.2494 46.7362 30.5745 42.7301C31.2447 40.7191 32.6631 38.3186 33.4895 37.3836C34.8299 35.887 36.3108 35.3879 36.6692 35.9963C37.1215 36.7912 35.0325 42.5897 34.5027 43.8991ZM49.2954 50.9759C48.9367 51.1631 48.5941 51.2878 48.438 51.1942C48.329 51.1317 48.5941 50.8823 48.5941 50.8823C48.5941 50.8823 50.449 48.8873 51.1814 47.983C51.6026 47.4532 52.101 46.8298 52.6312 46.1281V46.3307C52.6312 48.7158 50.324 50.3214 49.2951 50.9759H49.2954ZM60.7055 48.3728C60.4404 48.1856 60.4872 47.5622 61.3757 45.6136C61.7187 44.8498 62.529 43.5718 63.9166 42.3403C64.0724 42.8391 64.1817 43.3225 64.166 43.7744C64.1503 46.783 61.9995 47.9052 60.7055 48.3728Z" fill="#C7C8C9" stroke="black" stroke-width="2" mask="url(#path-1-inside-1_47_315)"/>
</svg>
