<svg width="64" height="64" viewBox="0 0 64 64" fill="none" xmlns="http://www.w3.org/2000/svg">
<path d="M52.5236 29.204L52.555 29.1727L51.6936 28.9605C51.0885 28.8114 50.1134 28.722 49.1698 28.6945C48.2275 28.667 47.2452 28.6992 46.6259 28.8189C42.9836 29.5083 40.3933 31.8613 39.6689 35.2783L39.6684 35.2804C39.562 35.7935 39.5325 36.6368 39.5547 37.4378C39.5769 38.2391 39.6531 39.0821 39.7887 39.594L39.7885 39.5941L39.7923 39.607C40.1601 40.858 40.7962 42.0137 41.6562 42.9938L41.6561 42.9939L41.6636 43.002C43.027 44.4881 44.5352 45.3959 47.8533 46.8308L52.5236 29.204ZM52.5236 29.204C53.822 29.6535 54.9973 30.4111 55.9458 31.417L55.9471 31.4183C56.2543 31.7467 56.6304 32.2037 56.9388 32.6137C57.0933 32.819 57.2353 33.0184 57.3453 33.1886C57.4002 33.2734 57.4503 33.3558 57.4909 33.4311C57.527 33.498 57.5726 33.5898 57.5976 33.6851L57.6005 33.6962L57.6004 33.6962C57.6414 33.8684 57.5791 34.0013 57.5639 34.0332C57.5405 34.0819 57.5142 34.117 57.5012 34.1337C57.4733 34.1691 57.4447 34.1969 57.4286 34.212C57.3927 34.2458 57.3494 34.2814 57.3075 34.3144C57.2205 34.383 57.0992 34.4723 56.9553 34.5751C56.6655 34.7819 56.2627 35.0583 55.8092 35.3628C54.9037 35.971 53.7834 36.6997 52.933 37.2248C52.7526 37.3395 52.5717 37.3065 52.494 37.2838C52.4087 37.2589 52.343 37.2182 52.305 37.1923C52.2247 37.1375 52.1504 37.066 52.0887 37.0005C51.9601 36.8639 51.8133 36.674 51.668 36.4564C51.2845 35.898 50.9116 35.528 50.5067 35.2844C50.1044 35.0424 49.6382 34.9057 49.0381 34.8629C48.1588 34.806 47.4979 35.0107 47.0677 35.3601C46.6468 35.702 46.3898 36.2275 46.394 36.9451L46.394 36.9526L46.3938 36.9602C46.3857 37.2933 46.46 37.6232 46.6103 37.9205L46.6143 37.9285L46.6142 37.9285C46.9489 38.6213 47.5624 39.09 50.0695 40.1767C54.6575 42.1464 56.7424 43.496 58.0492 45.4744C59.5091 47.6816 59.8171 51.1428 58.8505 53.7366L58.8488 53.7413C57.749 56.6049 55.0476 58.5013 51.3839 59.1166C50.7877 59.224 49.8255 59.2645 48.8859 59.254C47.9426 59.2434 46.964 59.1806 46.3324 59.0639C43.6713 58.5896 41.1281 57.2729 39.542 55.5124C39.2195 55.1611 38.769 54.5518 38.4144 54.0277C38.2351 53.7628 38.0727 53.5084 37.9579 53.3081C37.9015 53.21 37.8497 53.1129 37.8133 53.0288C37.7959 52.9888 37.7739 52.9334 37.7595 52.8727C37.7524 52.8427 37.7427 52.7937 37.7426 52.7345C37.7425 52.6829 37.7489 52.5655 37.8266 52.4458L37.8369 52.43L37.8483 52.415C37.8897 52.3607 37.936 52.3226 37.9496 52.3114C37.9721 52.2928 37.9959 52.275 38.0174 52.2595C38.061 52.2281 38.1139 52.1928 38.1703 52.1565C38.2841 52.0835 38.4291 51.9958 38.5802 51.9089C38.5803 51.9088 38.5805 51.9087 38.5807 51.9086L40.9547 50.5337L40.9554 50.5333L42.7987 49.4617L43.2029 49.2267L43.4645 49.6143L43.8505 50.1863L43.8534 50.1907L43.8534 50.1908C44.0968 50.5598 44.4981 51.018 44.9326 51.4337C45.3717 51.8538 45.8035 52.191 46.097 52.3456L46.0984 52.3464C47.0313 52.8416 48.1508 53.0585 49.1991 53.0042C50.2542 52.9495 51.1784 52.6243 51.7606 52.1034L51.7672 52.0975L51.774 52.0918C52.215 51.7246 52.4616 51.1575 52.4288 50.5888L52.428 50.5744V50.56C52.428 50.2071 52.4048 49.9948 52.3529 49.8179C52.3024 49.6456 52.2152 49.4747 52.0386 49.2211C51.8459 48.9488 51.5354 48.6645 50.8921 48.2877C50.2444 47.9084 49.2943 47.455 47.8535 46.8309L52.5236 29.204ZM37.052 32.1222L37.052 32.1199L37.02 29.5059L37.0139 29.0134L36.5214 29.012L25.3334 28.98L25.3328 28.98C22.2592 28.975 19.4561 28.9775 17.417 28.9865C16.3977 28.991 15.5682 28.9971 14.9908 29.0048C14.7026 29.0086 14.4749 29.0128 14.3173 29.0175C14.2392 29.0198 14.1739 29.0224 14.1256 29.0253C14.1028 29.0267 14.0759 29.0286 14.0507 29.0316C14.0398 29.0329 14.0167 29.0358 13.99 29.0417C13.9778 29.0444 13.9502 29.0507 13.9171 29.0632C13.9004 29.0695 13.8721 29.0812 13.8394 29.1003C13.8118 29.1166 13.7516 29.155 13.6968 29.2257C13.6473 29.2892 13.6261 29.3465 13.6218 29.3582L13.6213 29.3598C13.6079 29.3947 13.6005 29.4251 13.5968 29.4414C13.589 29.4762 13.5842 29.5103 13.5812 29.5353C13.5746 29.5886 13.5694 29.6548 13.5648 29.7269C13.5557 29.8737 13.5477 30.0763 13.5412 30.3179C13.528 30.8027 13.52 31.4609 13.52 32.178V34.74V35.24H14.02H21.842V58.418V58.918H22.342H28.238H28.738V58.418V35.24H36.572H37.0758L37.072 34.7362L37.052 32.1222ZM0.5 32V0.5H63.5V63.5H0.5V32Z" fill="#C7C8C9" stroke="black"/>
</svg>
