<svg width="80" height="64" viewBox="0 0 80 64" fill="none" xmlns="http://www.w3.org/2000/svg">
<path d="M51.4051 46.8425C49.2545 48.5942 46.1718 49.5212 42.4036 49.5212L29.8324 49.5212L29.8311 49.5212M51.4051 46.8425L29.8311 14.9788C29.6529 14.9783 29.4764 15.0132 29.3116 15.0813C29.1468 15.1495 28.9971 15.2496 28.8709 15.376C28.7448 15.5024 28.6446 15.6525 28.5763 15.8178C28.508 15.9831 28.4729 16.1603 28.4729 16.3392V47.6608C28.4729 47.8397 28.508 48.0169 28.5763 48.1822C28.6446 48.3475 28.7448 48.4976 28.8709 48.624C28.9971 48.7504 29.1468 48.8505 29.3116 48.9187C29.4764 48.9868 29.6529 49.0217 29.8311 49.0212V49.5212M51.4051 46.8425C53.5685 45.0804 54.7364 42.5252 54.7364 39.3948C54.7364 35.1598 52.1044 31.9623 48.1027 30.8882C50.9735 29.6773 53.0298 26.7157 53.0298 23.4733C53.0298 20.7589 51.9581 18.4918 50.0583 16.9121C48.1675 15.3398 45.4948 14.4788 42.3289 14.4788H29.8316M51.4051 46.8425L29.8316 14.4788M29.8311 49.5212C29.5873 49.5217 29.3458 49.4739 29.1205 49.3807C28.8948 49.2873 28.6897 49.1502 28.5171 48.9773C28.3444 48.8044 28.2076 48.5991 28.1142 48.3732C28.0209 48.1473 27.9729 47.9052 27.9729 47.6608V16.3392C27.9729 16.0948 28.0209 15.8527 28.1142 15.6268C28.2076 15.4009 28.3444 15.1956 28.5171 15.0227C28.6897 14.8498 28.8948 14.7127 29.1205 14.6193C29.346 14.526 29.5876 14.4783 29.8316 14.4788M29.8311 49.5212L29.8316 14.4788M9.32816 8.34542L9.32814 8.34485C9.18403 4.24553 12.3649 0.5 16.6151 0.5H63.3884C67.6388 0.5 70.8232 4.24571 70.6825 8.345C70.5362 12.5429 70.7222 18.0264 72.1016 22.5203L72.1018 22.5209C73.4389 26.8571 75.7128 29.8447 79.5 30.4107V33.5893C75.7161 34.1555 73.4389 37.1428 72.1018 41.4791L72.1016 41.4797C70.7222 45.9736 70.5362 51.4571 70.6825 55.6514C70.8231 59.7545 67.6387 63.5 63.3884 63.5H16.6187C12.365 63.5 9.18382 59.7544 9.3246 55.6511C9.47094 51.4568 9.28495 45.9734 7.90188 41.4794C6.56793 37.1423 4.28728 34.1552 0.5 33.5893V30.4107C4.28731 29.8448 6.56796 26.8577 7.90191 22.5206L7.90192 22.5205C9.28495 18.023 9.47094 12.543 9.32816 8.34542ZM39.9004 28.9613H34.3631V19.7921H40.5311V19.7957H41.0311C42.914 19.7957 44.3144 20.2186 45.2344 20.9542C46.1375 21.6763 46.6396 22.7486 46.6396 24.2017C46.6396 25.7454 46.0606 26.9029 44.9763 27.6927C43.8685 28.4996 42.1785 28.9613 39.9004 28.9613ZM41.2942 44.2043H34.3631V33.9961H40.9813C43.4846 33.9961 45.2986 34.4619 46.4751 35.3064C47.6228 36.1303 48.2253 37.359 48.2253 39.0627C48.2253 40.7749 47.6351 42.0259 46.5299 42.8659C45.4016 43.7235 43.6692 44.2043 41.2942 44.2043Z" fill="#C7C8C9" stroke="black"/>
</svg>
